<svg width="69" height="54" viewBox="0 0 69 54" fill="none" xmlns="http://www.w3.org/2000/svg">
<g filter="url(#filter0_d)">
<path d="M55.4864 45.1689H13.5136C10.2168 45.1685 7.15508 43.9047 5.42119 41.828C3.68777 39.7517 3.52981 37.1587 5.00352 34.975L25.9881 3.89674C27.5988 1.50875 30.8947 0 34.5 0C38.1053 0 41.4012 1.50875 43.0119 3.89674L63.9965 34.975C65.4702 37.1587 65.3122 39.7517 63.5788 41.828C61.8454 43.9047 58.7832 45.1685 55.4864 45.1689Z" fill="#FE9870"/>
<path d="M34.4999 11.2898C35.5509 11.2898 36.4029 11.9207 36.4029 12.6988V29.6067C36.4029 30.3848 35.5509 31.0157 34.4999 31.0157C33.449 31.0157 32.5969 30.3848 32.5969 29.6067V12.6988C32.5969 11.9207 33.449 11.2898 34.4999 11.2898Z" fill="white"/>
<path d="M32.5969 33.8336H36.4029V36.6516H32.5969V33.8336Z" fill="white"/>
</g>
<defs>
<filter id="filter0_d" x="0" y="0" width="69" height="53.1689" filterUnits="userSpaceOnUse" color-interpolation-filters="sRGB">
<feFlood flood-opacity="0" result="BackgroundImageFix"/>
<feColorMatrix in="SourceAlpha" type="matrix" values="0 0 0 0 0 0 0 0 0 0 0 0 0 0 0 0 0 0 127 0"/>
<feOffset dy="4"/>
<feGaussianBlur stdDeviation="2"/>
<feColorMatrix type="matrix" values="0 0 0 0 0 0 0 0 0 0 0 0 0 0 0 0 0 0 0.25 0"/>
<feBlend mode="normal" in2="BackgroundImageFix" result="effect1_dropShadow"/>
<feBlend mode="normal" in="SourceGraphic" in2="effect1_dropShadow" result="shape"/>
</filter>
</defs>
</svg>
